<svg width="22" height="30" viewBox="0 0 22 30" fill="none" xmlns="http://www.w3.org/2000/svg">
<path d="M1.50145 11.1067L1.50169 11.0931V11.0796C1.50169 8.53537 2.50507 6.09757 4.28758 4.30188C6.06972 2.50657 8.48447 1.5 11 1.5C13.5155 1.5 15.9303 2.50657 17.7124 4.30188C19.4949 6.09757 20.4983 8.53537 20.4983 11.0796V11.0931L20.4986 11.1067C20.5241 12.5213 20.2107 13.9207 19.5856 15.1862C18.2089 17.809 14.9672 23.4541 12.5555 27.6009C12.3948 27.8763 12.1663 28.1032 11.8936 28.2604C11.6208 28.4177 11.3128 28.5 11 28.5C10.6872 28.5 10.3792 28.4177 10.1064 28.2604C9.83373 28.1032 9.60523 27.8763 9.4445 27.6009C7.0328 23.4541 3.7911 17.809 2.41439 15.1862C1.78925 13.9207 1.47587 12.5213 1.50145 11.1067Z" stroke="#D62332" stroke-width="3"/>
<path d="M3.14237 0C2.52087 0 1.91333 0.185659 1.39657 0.533499C0.879806 0.881339 0.477039 1.37574 0.2392 1.95417C0.00136153 2.53261 -0.0608679 3.1691 0.0603812 3.78317C0.18163 4.39723 0.480913 4.96129 0.920381 5.40401C1.35985 5.84672 1.91977 6.14822 2.52933 6.27036C3.13889 6.39251 3.77072 6.32982 4.34491 6.09022C4.9191 5.85062 5.40987 5.44488 5.75516 4.9243C6.10045 4.40372 6.28475 3.79169 6.28475 3.16559C6.28475 2.32603 5.95368 1.52084 5.36437 0.927181C4.77506 0.333517 3.97578 0 3.14237 0V0Z" transform="translate(7.85742 7.91406)" fill="#D62332"/>
</svg>
