<svg xmlns="http://www.w3.org/2000/svg" viewBox="0 0 28 37.91"><defs><style>.cls-1{fill:#d62332;}</style></defs><title>Asset 4</title><g id="Layer_2" data-name="Layer 2"><g id="Layer_1-2" data-name="Layer 1"><path class="cls-1" d="M14,4A10,10,0,0,1,24,14a9.13,9.13,0,0,1-.91,4.19c-1.72,3.26-5.8,10.29-8.91,15.62a.21.21,0,0,1-.36,0c-3.11-5.33-7.19-12.36-8.91-15.62A9.13,9.13,0,0,1,4,14,10,10,0,0,1,14,4m0-4A14,14,0,0,0,0,14a13,13,0,0,0,1.37,6.05c1.77,3.35,5.93,10.54,9,15.78a4.21,4.21,0,0,0,7.26,0c3.07-5.24,7.23-12.43,9-15.78A13,13,0,0,0,28,14,14,14,0,0,0,14,0Z"/><circle class="cls-1" cx="14" cy="14" r="2"/><path class="cls-1" d="M14,14h0m0-4a4,4,0,1,0,4,4,4,4,0,0,0-4-4Z"/></g></g></svg>